# xmcd
#
# Track frame offsets: 
#        150
#        16730
#        31807
#        48357
#        73205
#        93600
#        116470
#        131525
#        156197
#        179067
#        192190
#        215720
#        236557
#        252900
#        274742
#        286237
#
# Disc length: 4078 seconds
#
# Revision: 8
# Processed by: cddbd v1.5.2PL0 Copyright (c) Steve Scherf et al.
# Submitted via: ExactAudioCopyFreeDBPlugin 1.0
#
DISCID=e90fec10
DTITLE=Mecano - Ana, José, Nacho (Disco 1)
DYEAR=1998
DGENRE=Latin
TTITLE0=Cuerpo y Corazón
TTITLE1=Otro Muerto
TTITLE2=El Club De Los Humildes
TTITLE3=Aire (Nueva Versión)
TTITLE4=Un Año Más
TTITLE5=Naturaleza Muerta
TTITLE6=Hoy No Me Puedo Levantar
TTITLE7=Dalí
TTITLE8=El 7 De Septiembre
TTITLE9=Me Cuesta Tanto Olvidarte
TTITLE10=La Fuerza Del Destino
TTITLE11=No Es Serio Este Cementerio
TTITLE12=Hermano Sol, Hermana Luna
TTITLE13=Una Rosa Es Una Rosa
TTITLE14=Maquillaje
TTITLE15=Hijo De La Luna
EXTD=YEAR: 1998 ID3G: 0
EXTT0=
EXTT1=
EXTT2=
EXTT3=
EXTT4=
EXTT5=
EXTT6=
EXTT7=
EXTT8=
EXTT9=
EXTT10=
EXTT11=
EXTT12=
EXTT13=
EXTT14=
EXTT15=
PLAYORDER=
